<?xml version="1.0" standalone="no"?>
<!DOCTYPE svg PUBLIC "-//W3C//DTD SVG 20010904//EN"
 "http://www.w3.org/TR/2001/REC-SVG-20010904/DTD/svg10.dtd">
<svg version="1.0" xmlns="http://www.w3.org/2000/svg"
 width="48.000000pt" height="59.000000pt" viewBox="0 0 48.000000 59.000000"
 preserveAspectRatio="xMidYMid meet">

<g transform="translate(0.000000,59.000000) scale(0.100000,-0.100000)"
fill="#000000" stroke="none">
<path d="M210 517 c-82 -43 -169 -99 -174 -113 -3 -8 -6 -60 -6 -114 0 -79 3
-102 17 -118 22 -24 172 -112 192 -112 18 0 134 63 179 96 l32 25 0 105 c0 58
-4 113 -9 123 -10 17 -147 102 -186 114 -11 4 -31 1 -45 -6z m168 -83 l53 -34
-3 -107 -3 -107 -40 -27 c-22 -15 -63 -40 -92 -56 l-52 -28 -55 30 c-31 17
-73 41 -93 55 l-38 26 -3 106 c-3 122 -9 113 121 182 l68 36 42 -22 c23 -11
66 -36 95 -54z"/>
<path d="M122 417 c-18 -21 9 -39 50 -35 25 2 33 8 33 23 0 16 -8 21 -36 23
-22 2 -40 -2 -47 -11z"/>
<path d="M243 414 c-7 -19 5 -31 37 -36 14 -1 24 -7 23 -13 -2 -6 -47 -11
-103 -13 -81 -2 -102 -6 -107 -18 -9 -25 16 -34 95 -34 69 0 101 -15 45 -22
-20 -2 -28 -9 -28 -23 0 -16 8 -21 43 -23 69 -5 46 -27 -32 -30 -49 -2 -69 -7
-73 -18 -10 -25 16 -34 105 -34 124 0 122 -2 122 138 0 79 -4 122 -12 130 -18
18 -107 16 -115 -4z"/>
<path d="M104 265 c-9 -22 9 -37 37 -33 16 2 24 10 24 23 0 26 -52 35 -61 10z"/>
</g>
</svg>
